<svg id="Layer_1" data-name="Layer 1" xmlns="http://www.w3.org/2000/svg" viewBox="0 0 512 512"><defs><style>.cls-1{fill:#1e87c1;}.cls-2{fill:#50b9ff;}.cls-3{fill:#38a7e5;}.cls-4{fill:#f7818f;}.cls-5{opacity:0.06;}</style></defs><title>mailbox-flat</title><path class="cls-1" d="M301.95,407H236.31v70.74c0,17.13,12.49,32.46,29.54,34.12a32.86,32.86,0,0,0,36.1-32.66Z"/><path class="cls-2" d="M236.31,249.44V407H39.38C17.66,407,0,389.38,0,354.92V252.32c0-64,49.62-118.55,113.62-121,1.51-.07,3-.07,4.46-.07h.07A117.34,117.34,0,0,1,201.65,166a100.55,100.55,0,0,1,7.61,8.27A117.62,117.62,0,0,1,236.31,249.44Z"/><path class="cls-1" d="M164.1,275.69H72.21a6.56,6.56,0,1,1,0-13.13h91.9a6.56,6.56,0,1,1,0,13.13Z"/><path class="cls-1" d="M164.1,328.21H72.21a6.56,6.56,0,1,1,0-13.13h91.9a6.56,6.56,0,1,1,0,13.13Z"/><path class="cls-3" d="M512,249.44V367.59A39.42,39.42,0,0,1,472.62,407H236.31V249.44a117.62,117.62,0,0,0-27-75.16,100.55,100.55,0,0,0-7.61-8.27,117.72,117.72,0,0,0-84.22-34.59c.26,0,.39-.13.66-.13H393.85A118.16,118.16,0,0,1,512,249.44Z"/><path class="cls-1" d="M295.38,223.18a6.56,6.56,0,0,1-6.56-6.56V85.33a6.56,6.56,0,1,1,13.13,0V216.62A6.56,6.56,0,0,1,295.38,223.18Z"/><path class="cls-4" d="M393.85,0H315.08a26.29,26.29,0,0,0-26.26,26.26V91.9h105A26.29,26.29,0,0,0,420.1,65.64V26.26A26.29,26.29,0,0,0,393.85,0Z"/><g class="cls-5"><path d="M512,295.38v72.21A39.42,39.42,0,0,1,472.62,407H39.38C17.66,407,0,389.38,0,354.92V295.38Z"/></g></svg>